<svg width="39" height="40" viewBox="0 0 39 40" fill="none" xmlns="http://www.w3.org/2000/svg">
<path opacity="0.15" d="M29.1239 17.6364C29.1239 24.4145 23.7979 29.9092 17.2281 29.9092C10.6582 29.9092 5.33232 24.4145 5.33232 17.6364C5.33232 10.8584 10.6582 5.36371 17.2281 5.36371C23.7979 5.36371 29.1239 10.8584 29.1239 17.6364Z" fill="#929CBF" stroke="black" stroke-linecap="round" stroke-linejoin="round"/>
<path d="M31.7575 33.7039C32.0458 34.0013 32.5206 34.0087 32.8181 33.7204C33.1155 33.4321 33.1229 32.9573 32.8346 32.6599L31.7575 33.7039ZM26.1782 25.7926C25.8899 25.4951 25.4151 25.4877 25.1177 25.776C24.8202 26.0643 24.8128 26.5391 25.1011 26.8366L26.1782 25.7926ZM17.2281 29.1592C11.0943 29.1592 6.08232 24.0225 6.08232 17.6364H4.58232C4.58232 24.8065 10.2221 30.6592 17.2281 30.6592V29.1592ZM6.08232 17.6364C6.08232 11.2504 11.0943 6.11371 17.2281 6.11371V4.61371C10.2221 4.61371 4.58232 10.4664 4.58232 17.6364H6.08232ZM17.2281 6.11371C23.3618 6.11371 28.3739 11.2504 28.3739 17.6364H29.8739C29.8739 10.4664 24.234 4.61371 17.2281 4.61371V6.11371ZM28.3739 17.6364C28.3739 24.0225 23.3618 29.1592 17.2281 29.1592V30.6592C24.234 30.6592 29.8739 24.8065 29.8739 17.6364H28.3739ZM32.8346 32.6599L26.1782 25.7926L25.1011 26.8366L31.7575 33.7039L32.8346 32.6599Z" fill="black"/>
</svg>
